<svg width="889" height="821" viewBox="0 0 889 821" fill="none" xmlns="http://www.w3.org/2000/svg">
<path fill-rule="evenodd" clip-rule="evenodd" d="M650.547 116.027C650.918 114.79 652.054 113.941 653.346 113.934C653.353 113.934 653.36 113.934 653.368 113.934C654.542 113.94 655.489 114.897 655.483 116.071C655.481 116.498 655.48 116.748 655.48 116.819C655.48 116.823 655.48 116.828 655.48 116.834C655.48 118.227 654.365 119.363 652.972 119.39L652.596 119.397C652.481 119.399 652.367 119.392 652.253 119.377C651.021 119.211 650.157 118.078 650.323 116.845C650.334 116.758 650.409 116.485 650.547 116.027ZM660.547 164.027C660.918 162.79 662.054 161.941 663.346 161.934C663.353 161.934 663.36 161.934 663.368 161.934C664.542 161.94 665.489 162.897 665.483 164.071C665.481 164.498 665.48 164.748 665.48 164.819C665.48 164.823 665.48 164.828 665.48 164.834C665.48 166.227 664.365 167.363 662.972 167.39L662.596 167.397C662.481 167.399 662.367 167.392 662.253 167.377C661.021 167.211 660.157 166.078 660.323 164.845C660.334 164.758 660.409 164.485 660.547 164.027ZM363.628 129.06C363.812 129.48 363.914 129.732 363.936 129.815C364.25 131.03 363.519 132.27 362.304 132.584C362.198 132.611 362.091 132.631 361.982 132.642L361.556 132.689C360.165 132.84 358.911 131.843 358.746 130.453C358.738 130.383 358.708 130.144 358.658 129.736C358.512 128.542 359.361 127.455 360.555 127.308C361.854 127.149 363.103 127.861 363.628 129.06ZM360.444 172.404C360.654 172.883 360.772 173.171 360.796 173.267C361.155 174.656 360.32 176.072 358.931 176.431C358.811 176.462 358.688 176.484 358.563 176.498L358.077 176.551C356.487 176.724 355.054 175.584 354.865 173.995C354.856 173.916 354.822 173.643 354.765 173.176C354.597 171.811 355.568 170.569 356.932 170.402C358.417 170.22 359.845 171.033 360.444 172.404ZM462.637 26.1761C463.281 24.018 465.266 22.5391 467.518 22.5391C469.589 22.5391 471.267 24.2175 471.267 26.2881C471.267 27.0012 471.268 27.4182 471.268 27.5391C471.277 29.952 469.342 31.9223 466.929 31.9554L466.206 31.9653C466.018 31.9679 465.83 31.9569 465.643 31.9325C463.498 31.6512 461.987 29.6843 462.268 27.5391C462.287 27.3906 462.411 26.9363 462.637 26.1761Z" fill="#F6F0FF"/>
<path fill-rule="evenodd" clip-rule="evenodd" d="M413.302 413.935C415.613 431.992 417.447 442.326 418.802 444.935C420.835 448.848 431.302 452.435 433.302 452.435C434.635 452.435 483.968 456.601 581.302 464.935C588.635 464.935 594.968 462.768 600.302 458.435C602.452 456.687 602.235 454.187 603.302 450.435C604.354 446.732 605.354 438.899 606.302 426.935L581.302 413.935H413.302Z" fill="white"/>
<path d="M360.854 126.845C359.249 127.042 358.107 128.503 358.304 130.108C358.354 130.515 358.384 130.754 358.392 130.822C358.605 132.621 360.228 133.911 362.028 133.715L362.454 133.669C362.598 133.653 362.741 133.627 362.882 133.591C364.498 133.173 365.47 131.525 365.053 129.909C365.016 129.768 364.911 129.511 364.705 129.04C364.048 127.537 362.482 126.645 360.854 126.845ZM363.331 129.641C363.493 130.01 363.593 130.257 363.6 130.284C363.81 131.098 363.321 131.928 362.507 132.138C362.436 132.157 362.364 132.17 362.291 132.178L361.866 132.224C360.883 132.331 359.998 131.627 359.881 130.645C359.873 130.574 359.843 130.335 359.793 129.925C359.697 129.142 360.254 128.43 361.037 128.334C362.007 128.214 362.94 128.746 363.331 129.641ZM357.232 169.938C355.456 170.156 354.193 171.773 354.411 173.548C354.468 174.014 354.502 174.287 354.511 174.365C354.748 176.362 356.55 177.795 358.549 177.577L359.035 177.525C359.195 177.507 359.354 177.478 359.51 177.438C361.299 176.976 362.375 175.15 361.913 173.361C361.874 173.207 361.754 172.915 361.522 172.384C360.79 170.71 359.045 169.716 357.232 169.938ZM360.148 172.985C360.336 173.414 360.451 173.697 360.461 173.736C360.716 174.723 360.122 175.73 359.134 175.986C359.048 176.008 358.961 176.024 358.873 176.033L358.387 176.086C357.205 176.215 356.14 175.368 356 174.188C355.991 174.107 355.957 173.834 355.9 173.366C355.783 172.412 356.461 171.544 357.414 171.427C358.57 171.285 359.681 171.919 360.148 172.985ZM653.366 112.816C651.745 112.824 650.319 113.89 649.852 115.443C649.699 115.954 649.623 116.231 649.603 116.377C649.382 118.02 650.534 119.531 652.177 119.752C652.328 119.772 652.481 119.781 652.635 119.778L653.011 119.771C654.812 119.737 656.254 118.267 656.254 116.466L656.254 116.451C656.254 116.382 656.255 116.132 656.257 115.707C656.265 114.118 654.984 112.824 653.395 112.816C653.381 112.816 653.381 112.816 653.366 112.816ZM651.09 116.577C651.094 116.548 651.167 116.279 651.289 115.874C651.566 114.953 652.412 114.321 653.374 114.316C653.381 114.316 653.381 114.316 653.388 114.316C654.148 114.32 654.761 114.939 654.757 115.699C654.755 116.128 654.754 116.377 654.754 116.45L654.754 116.466C654.754 117.45 653.966 118.253 652.982 118.271L652.606 118.279C652.529 118.28 652.453 118.276 652.377 118.265C651.555 118.155 650.979 117.399 651.09 116.577ZM663.366 160.816C661.745 160.824 660.319 161.89 659.852 163.443C659.699 163.954 659.623 164.231 659.603 164.377C659.382 166.02 660.534 167.531 662.177 167.752C662.328 167.772 662.481 167.781 662.635 167.778L663.011 167.771C664.812 167.737 666.254 166.267 666.254 164.466L666.254 164.451C666.254 164.382 666.255 164.132 666.257 163.707C666.265 162.118 664.984 160.824 663.395 160.816C663.381 160.816 663.381 160.816 663.366 160.816ZM661.09 164.577C661.094 164.548 661.167 164.279 661.289 163.874C661.566 162.953 662.412 162.321 663.374 162.316C663.381 162.316 663.381 162.316 663.388 162.316C664.148 162.32 664.761 162.939 664.757 163.699C664.755 164.128 664.754 164.377 664.754 164.45L664.754 164.466C664.754 165.45 663.966 166.253 662.982 166.271L662.606 166.279C662.529 166.28 662.453 166.276 662.377 166.265C661.555 166.155 660.979 165.399 661.09 164.577ZM461.488 27.638C461.153 30.1939 462.954 32.5375 465.51 32.8725C465.732 32.9017 465.956 32.9147 466.181 32.9116L466.903 32.9017C469.727 32.863 471.993 30.5568 471.982 27.7325C471.982 27.6131 471.981 27.1961 471.981 26.4845C471.981 23.9997 469.967 21.9855 467.482 21.9855C464.898 21.9855 462.622 23.6823 461.883 26.1581C461.64 26.9715 461.516 27.4309 461.488 27.638ZM467.482 23.4855C469.138 23.4855 470.481 24.8282 470.481 26.4845C470.481 27.1991 470.482 27.6161 470.482 27.7384C470.49 29.74 468.884 31.3744 466.883 31.4018L466.16 31.4118C466.008 31.4139 465.856 31.405 465.705 31.3852C463.97 31.1579 462.748 29.5674 462.976 27.833C462.988 27.7431 463.109 27.2938 463.32 26.5869C463.869 24.7467 465.562 23.4855 467.482 23.4855Z" fill="#67577F"/>
<path d="M417.48 161.173L411.148 174.434L361.002 172.93L360.957 174.43L412.08 175.962L419.161 161.133L448.934 160.426L448.899 158.926L418.292 159.653L413.093 139.217L363.904 130.101L363.631 131.576L411.876 140.517L417.133 161.181L417.48 161.173Z" fill="#67577F"/>
<path fill-rule="evenodd" clip-rule="evenodd" d="M525.802 225.435L598.302 211.435L565.802 298.935H537.802L525.802 225.435Z" fill="#67577F"/>
<path fill-rule="evenodd" clip-rule="evenodd" d="M435.302 314.434L319.493 286.919C303.512 283.122 286.669 286.534 273.424 296.25L192.976 355.267C179.849 364.898 171.562 379.765 170.276 395.995L159.302 534.434H185.302L200.613 405.819C202.013 394.062 208.092 383.365 217.477 376.145L290.596 319.9C296.784 315.14 304.677 313.18 312.373 314.492L432.302 334.934L435.302 314.434Z" fill="white"/>
<path d="M436.144 313.863L319.667 286.19C303.471 282.342 286.403 285.799 272.981 295.645L192.533 354.663C179.229 364.422 170.832 379.488 169.528 395.936L158.49 535.184H185.968L201.358 405.908C202.734 394.351 208.71 383.836 217.935 376.74L291.054 320.495C297.075 315.862 304.758 313.954 312.247 315.231L432.933 335.803L436.144 313.863ZM431.671 334.066L312.499 313.752C304.597 312.406 296.492 314.418 290.139 319.306L217.02 375.551C207.475 382.893 201.292 393.773 199.869 405.731L184.636 533.684H160.114L171.024 396.054C172.293 380.041 180.468 365.374 193.42 355.872L273.868 296.855C286.936 287.268 303.553 283.903 319.32 287.649L434.461 315.005L431.671 334.066Z" fill="#67577F"/>
<path fill-rule="evenodd" clip-rule="evenodd" d="M432.859 451.663L425.302 421.435L567.802 430.935L569.432 435.159L581.297 464.164C589.865 463.799 595.719 462.34 598.834 459.849C601.608 457.63 603.754 449.299 605.115 435.042L583.302 418.631L594.302 300.935L617.802 342.935L607.051 429.883C607.053 429.918 607.053 429.955 607.05 429.991C605.698 447.904 603.344 458.162 599.771 461.02C596.329 463.774 590.147 465.304 581.2 465.67L581.302 465.935L433.302 453.435L433.239 453.183C424.23 452.864 416.759 446.099 415.554 437.161L412.514 414.616L414 414.415L417.04 436.961C418.128 445.03 424.775 451.173 432.859 451.663Z" fill="#67577F"/>
<path d="M407.302 176.312L412.491 202.258C417.36 226.6 441.02 242.402 465.37 237.573L597.802 211.312L583.092 149.079C572.752 105.33 530.829 76.6279 486.302 82.8121C480.397 83.6323 474.069 84.7248 467.316 86.0897C425.856 94.4706 399.006 134.835 407.302 176.312Z" fill="white"/>
<mask id="mask0" mask-type="alpha" maskUnits="userSpaceOnUse" x="405" y="81" width="193" height="158">
<path d="M407.302 176.312L412.491 202.258C417.36 226.6 441.02 242.402 465.37 237.573L597.802 211.312L583.092 149.079C572.752 105.33 530.829 76.6279 486.302 82.8121C480.397 83.6323 474.069 84.7248 467.316 86.0897C425.856 94.4706 399.006 134.835 407.302 176.312Z" fill="white"/>
</mask>
<g mask="url(#mask0)">
<path fill-rule="evenodd" clip-rule="evenodd" d="M406.302 222.935L511.184 205.454C521.43 203.747 528.663 194.48 527.832 184.126L525.779 158.564C524.807 146.452 514.2 137.423 502.089 138.395C501.242 138.463 500.4 138.58 499.566 138.745L390.302 160.435L406.302 222.935Z" fill="#F6F0FF"/>
<path d="M405.746 223.288L511.307 205.694C521.937 203.922 529.442 194.308 528.579 183.566L526.527 158.004C525.521 145.479 514.553 136.142 502.029 137.147C501.153 137.218 500.282 137.339 499.421 137.51L389.379 159.353L405.746 223.288ZM391.225 160.516L499.713 138.981C500.518 138.821 501.331 138.708 502.149 138.643C513.848 137.703 524.093 146.425 525.032 158.124L527.084 183.686C527.884 193.651 520.922 202.571 511.061 204.215L406.858 221.582L391.225 160.516Z" fill="#67577F"/>
</g>
<path d="M468.518 60.2895L468.302 31.9346C468.302 31.5204 467.966 31.1846 467.552 31.1846C467.138 31.1846 466.802 31.5204 466.802 31.9346L467.018 61.0395C467.018 61.4538 467.354 61.7895 467.768 61.7895H488.031L476.603 83.6926C476.412 84.0599 476.554 84.5129 476.921 84.7045C477.288 84.8961 477.741 84.7537 477.933 84.3865L489.933 61.3865C490.194 60.8871 489.831 60.2895 489.268 60.2895H468.518Z" fill="#67577F"/>
<path d="M406.567 176.459L411.756 202.405C416.705 227.153 440.761 243.218 465.516 238.309L597.948 212.048C598.365 211.965 598.63 211.553 598.532 211.14L583.822 148.906C573.393 104.781 531.109 75.8319 486.199 82.0693C480.278 82.8917 473.935 83.9868 467.168 85.3546C425.302 93.8174 398.19 134.576 406.567 176.459ZM465.225 236.838C441.281 241.586 418.014 226.047 413.227 202.111L408.038 176.165C399.823 135.093 426.41 95.1238 467.465 86.8249C474.203 85.4629 480.516 84.373 486.405 83.5551C530.549 77.4241 572.111 105.879 582.363 149.251L596.893 210.728L465.225 236.838Z" fill="#67577F"/>
<path fill-rule="evenodd" clip-rule="evenodd" d="M428.024 298.739L411.623 405.19C410.445 412.832 415.686 419.982 423.328 421.159C423.719 421.219 424.113 421.263 424.508 421.29L567.981 431.066C575.193 431.558 581.594 426.478 582.752 419.343L599.857 314.016C601.097 306.384 595.914 299.192 588.282 297.953C587.888 297.889 587.492 297.842 587.094 297.812L442.916 286.91C435.625 286.359 429.137 291.512 428.024 298.739Z" fill="white"/>
<path d="M427.283 298.625L410.882 405.076C409.641 413.127 415.162 420.66 423.214 421.9C423.626 421.964 424.041 422.01 424.457 422.038L567.931 431.815C575.529 432.333 582.272 426.981 583.493 419.463L600.598 314.136C601.903 306.095 596.444 298.518 588.403 297.212C587.988 297.145 587.57 297.095 587.15 297.064L442.973 286.163C435.291 285.582 428.456 291.011 427.283 298.625ZM428.765 298.853C429.819 292.013 435.959 287.137 442.86 287.658L587.037 298.559C587.414 298.588 587.789 298.632 588.162 298.693C595.385 299.866 600.29 306.673 599.117 313.896L582.012 419.223C580.915 425.976 574.858 430.783 568.033 430.318L424.559 420.542C424.185 420.516 423.812 420.475 423.442 420.418C416.21 419.303 411.25 412.537 412.364 405.305L428.765 298.853Z" fill="#67577F"/>
<path fill-rule="evenodd" clip-rule="evenodd" d="M153.172 533.167C152.721 541.864 159.405 549.28 168.103 549.731C168.359 549.745 168.616 549.752 168.872 549.752L177.44 549.778C186.251 549.805 193.415 542.684 193.442 533.873C193.442 533.849 193.442 533.825 193.442 533.801C193.428 524.872 186.324 517.569 177.399 517.31L170.581 517.112C161.379 516.844 153.649 523.974 153.172 533.167Z" fill="white"/>
<path fill-rule="evenodd" clip-rule="evenodd" d="M342.938 721.724L416.302 686.224L323.527 620.934L251.302 650.188" fill="white"/>
<path d="M152.673 533.642C152.201 542.752 159.203 550.521 168.314 550.994C168.583 551.008 168.852 551.015 169.12 551.016L177.689 551.042C186.914 551.07 194.414 543.614 194.442 534.389L194.442 534.314C194.428 524.98 187.001 517.345 177.671 517.074L170.853 516.876C161.244 516.597 153.171 524.042 152.673 533.642ZM154.171 533.719C154.627 524.933 162.015 518.12 170.809 518.375L177.628 518.573C186.147 518.821 192.929 525.792 192.942 534.316L192.942 534.384C192.917 542.781 186.09 549.567 177.693 549.542L169.125 549.516C168.88 549.515 168.636 549.509 168.392 549.496C160.108 549.066 153.742 542.003 154.171 533.719Z" fill="#67577F"/>
<path fill-rule="evenodd" clip-rule="evenodd" d="M148.304 721.724L69.8036 755.934C23.9787 706.609 1.14532 681.275 1.30355 679.934C1.46178 678.592 28.4618 668.592 82.3036 649.934L148.304 721.724Z" fill="white"/>
<path fill-rule="evenodd" clip-rule="evenodd" d="M156.3 820.143L333.302 818.934L343.302 721.934H148.302L107.802 739.434L112.802 779.934L156.3 820.143Z" fill="white"/>
<path fill-rule="evenodd" clip-rule="evenodd" d="M220.302 721.934V779.934L251.302 760.934L280.302 779.934V721.934H220.302Z" fill="#F6F0FF"/>
<path d="M155.56 820.061L112.096 780.305L106.651 740.486L69.6081 756.628L0 679.399L82.5138 649.56L148.825 720.975H342.768L414.83 686.105L323.432 621.783L251.802 651.435L251.239 650.044L323.626 620.086L417.777 686.345L344.026 722.033L333.981 819.47L155.611 820.689L155.56 820.061ZM155.381 817.865L147.625 722.63L108.079 739.863L113.508 779.564L155.381 817.865ZM149.117 722.475L156.993 819.18L332.626 817.979L342.472 722.475H149.117ZM82.0902 651.309L2.60724 680.051L69.9991 754.822L147.034 721.251L82.0902 651.309Z" fill="#67577F"/>
<path d="M279.891 780.561C280.39 780.888 281.052 780.53 281.052 779.934V721.934C281.052 721.519 280.716 721.184 280.302 721.184H220.302C219.888 721.184 219.552 721.519 219.552 721.934V779.934C219.552 780.52 220.194 780.879 220.694 780.573L251.288 761.821L279.891 780.561ZM279.552 722.684V778.546L251.713 760.306C251.47 760.147 251.157 760.142 250.91 760.294L221.052 778.594V722.684H279.552Z" fill="#67577F"/>
<path d="M422.049 177.422C421.575 174.982 423.168 172.62 425.608 172.146C428.047 171.672 430.409 173.265 430.884 175.704L433.555 189.447C434.029 191.887 432.436 194.249 429.996 194.723C427.557 195.197 425.194 193.604 424.72 191.164L422.049 177.422Z" fill="white"/>
<path d="M492.486 168.595C492.15 165.855 494.099 163.36 496.84 163.023C499.58 162.687 502.075 164.636 502.412 167.377L504.118 181.272C504.454 184.013 502.505 186.508 499.764 186.845C497.024 187.181 494.529 185.232 494.192 182.491L492.486 168.595Z" fill="white"/>
<path d="M497.336 162.963L496.344 163.085C493.877 163.388 492.123 165.633 492.425 168.1L494.254 182.988C494.556 185.455 496.802 187.209 499.268 186.906L500.261 186.784C502.728 186.481 504.482 184.236 504.179 181.769L502.351 166.881C502.048 164.414 499.803 162.66 497.336 162.963ZM497.519 164.452C499.163 164.25 500.66 165.419 500.862 167.064L502.69 181.952C502.892 183.597 501.723 185.093 500.078 185.295L499.086 185.417C497.441 185.619 495.944 184.45 495.742 182.805L493.914 167.917C493.712 166.272 494.882 164.776 496.526 164.574L497.519 164.452ZM497.084 165.009C495.439 165.211 494.27 166.708 494.472 168.352L496.178 182.248C496.38 183.892 497.876 185.062 499.521 184.86C501.165 184.658 502.335 183.161 502.133 181.517L500.427 167.621C500.225 165.977 498.728 164.807 497.084 165.009ZM503.914 163.141C504.326 163.185 504.695 162.886 504.739 162.474C504.783 162.062 504.484 161.693 504.072 161.649L490.221 160.185C489.809 160.141 489.44 160.44 489.396 160.851C489.353 161.263 489.651 161.633 490.063 161.676L503.914 163.141ZM419.571 173.634L432.571 168.634C432.958 168.486 433.151 168.052 433.002 167.665C432.854 167.279 432.42 167.086 432.033 167.234L419.033 172.234C418.646 172.383 418.454 172.817 418.602 173.204C418.751 173.59 419.185 173.783 419.571 173.634ZM459.12 193.39C461.071 190.98 463.585 189.622 466.703 189.294C471.882 188.75 473.038 188.892 477.03 190.625C477.41 190.79 477.851 190.616 478.017 190.236C478.182 189.856 478.007 189.414 477.627 189.249C473.383 187.406 471.969 187.233 466.546 187.803C463.034 188.172 460.157 189.726 457.954 192.446C457.694 192.768 457.743 193.24 458.065 193.501C458.387 193.761 458.859 193.712 459.12 193.39ZM426.206 171.562L425.218 171.718C422.763 172.107 421.089 174.412 421.478 176.867L423.824 191.682C424.213 194.137 426.518 195.811 428.973 195.423L429.96 195.266C432.415 194.877 434.09 192.572 433.701 190.118L431.354 175.302C430.966 172.848 428.661 171.173 426.206 171.562ZM426.441 173.043C428.077 172.784 429.614 173.9 429.873 175.537L432.219 190.352C432.479 191.989 431.362 193.525 429.726 193.785L428.738 193.941C427.101 194.2 425.565 193.084 425.306 191.447L422.959 176.632C422.7 174.995 423.816 173.459 425.453 173.2L426.441 173.043ZM426.025 173.615C424.388 173.874 423.272 175.411 423.531 177.048L425.721 190.875C425.98 192.512 427.517 193.628 429.154 193.369C430.79 193.11 431.907 191.573 431.647 189.937L429.457 176.109C429.198 174.472 427.661 173.356 426.025 173.615Z" fill="#67577F"/>
<path fill-rule="evenodd" clip-rule="evenodd" d="M342.304 721.725H148.304L82.3037 650.225H251.304L342.304 721.725ZM133.385 767.431C129.935 768.42 125.533 763.627 123.554 756.726C121.575 749.824 122.768 743.427 126.219 742.438C129.67 741.448 134.071 746.241 136.05 753.143C138.029 760.044 136.836 766.441 133.385 767.431Z" fill="#67577F"/>
<path fill-rule="evenodd" clip-rule="evenodd" d="M526.835 455.388L554.04 611.935L544.802 787.435L517.036 812.464C515.395 813.943 515.264 816.472 516.743 818.113C517.501 818.954 518.581 819.435 519.714 819.435H607.302C594.838 725.353 584.75 655.187 577.04 608.935C569.591 564.246 559.381 512.014 546.412 452.238C545.614 448.559 542.359 445.935 538.594 445.935C537.708 445.935 536.857 445.935 536.04 445.935C535.361 445.935 534.625 445.979 533.832 446.067C529.441 446.556 526.278 450.512 526.766 454.903C526.784 455.065 526.807 455.227 526.835 455.388Z" fill="white"/>
<path d="M543.831 787.085L516.295 811.906C514.347 813.663 514.191 816.666 515.947 818.615C516.848 819.614 518.13 820.185 519.476 820.185H607.064C607.517 820.185 607.867 819.785 607.807 819.336C595.342 725.247 585.254 655.073 577.542 608.811C570.09 564.11 559.878 511.866 546.907 452.079C546.034 448.055 542.473 445.185 538.356 445.185H535.802C535.094 445.185 534.331 445.23 533.511 445.322C528.708 445.856 525.248 450.183 525.783 454.986C525.802 455.163 525.828 455.34 525.858 455.516L553.048 611.98L543.831 787.085ZM543.815 787.395L544.062 786.878L543.831 787.085L543.815 787.395ZM606.208 818.685H519.476C518.555 818.685 517.678 818.294 517.062 817.611C515.86 816.277 515.966 814.222 517.3 813.021L545.066 787.992C545.214 787.859 545.302 787.672 545.313 787.474L554.551 611.974L554.541 611.806L527.336 455.259C527.311 455.113 527.29 454.967 527.273 454.82C526.83 450.84 529.698 447.255 533.677 446.812C534.443 446.727 535.152 446.685 535.802 446.685H538.356C541.767 446.685 544.717 449.063 545.441 452.397C558.408 512.162 568.615 564.383 576.062 609.058C583.747 655.161 593.796 725.038 606.208 818.685Z" fill="#67577F"/>
<path fill-rule="evenodd" clip-rule="evenodd" d="M547.402 610.327C546.483 602.604 551.989 595.595 559.71 594.659L564.82 594.039C572.563 593.101 579.641 598.508 580.773 606.225C580.788 606.323 580.801 606.421 580.813 606.519C581.75 614.039 576.414 620.894 568.894 621.831L563.031 622.562C563.005 622.565 562.98 622.568 562.954 622.571C555.279 623.485 548.316 618.003 547.402 610.327ZM556.397 608.967C556.812 612.344 559.882 614.748 563.26 614.34L565.995 614.01C569.261 613.616 571.589 610.649 571.194 607.384C571.187 607.325 571.179 607.267 571.171 607.209C570.66 603.827 567.559 601.459 564.162 601.857L561.76 602.139C558.402 602.533 555.998 605.575 556.393 608.934C556.394 608.945 556.395 608.956 556.397 608.967Z" fill="#F6F0FF"/>
<path d="M546.291 610.771C545.323 602.638 551.122 595.255 559.254 594.27L564.363 593.65C572.51 592.663 579.958 598.352 581.149 606.472C581.164 606.575 581.179 606.679 581.191 606.782C582.18 614.713 576.552 621.943 568.621 622.931L562.757 623.662L562.677 623.672C554.59 624.634 547.254 618.858 546.291 610.771ZM547.781 610.594C548.645 617.859 555.235 623.047 562.5 622.182L562.572 622.173L568.436 621.443C575.544 620.557 580.589 614.076 579.703 606.968C579.691 606.875 579.679 606.782 579.665 606.689C578.592 599.375 571.883 594.25 564.544 595.139L559.434 595.759C552.124 596.645 546.91 603.282 547.781 610.594ZM555.282 609.377C554.839 605.607 557.537 602.192 561.307 601.75L563.708 601.468C567.508 601.022 570.975 603.67 571.546 607.452C571.556 607.518 571.565 607.584 571.573 607.65C572.017 611.326 569.396 614.667 565.719 615.11L562.984 615.441C559.195 615.898 555.752 613.202 555.286 609.414L555.282 609.377ZM562.804 613.951L565.539 613.621C568.394 613.277 570.428 610.684 570.084 607.829C570.078 607.778 570.071 607.727 570.063 607.676C569.613 604.694 566.879 602.606 563.883 602.958L561.481 603.24C558.534 603.585 556.426 606.255 556.771 609.202L556.775 609.231C557.139 612.198 559.837 614.309 562.804 613.951Z" fill="#67577F"/>
<path fill-rule="evenodd" clip-rule="evenodd" d="M486.653 452.065L437.302 610.258L510.214 744.434L505.674 791.071C505.46 793.27 507.069 795.226 509.268 795.44C510.348 795.545 511.426 795.207 512.252 794.502L579.714 736.934L563.714 720.934L460.863 611.198L505.685 455.543C506.835 451.549 504.529 447.378 500.535 446.228C499.857 446.033 499.156 445.934 498.452 445.934C497.746 445.934 497.021 445.891 496.276 445.805C491.981 445.309 487.941 447.938 486.653 452.065Z" fill="white"/>
<path d="M509.905 744.792L509.817 744.361L509.795 744.59L509.905 744.792ZM505.278 790.999C505.023 793.61 506.934 795.932 509.545 796.187C510.828 796.312 512.108 795.909 513.089 795.072L580.551 737.504C580.884 737.22 580.904 736.713 580.594 736.404L564.594 720.404L462.052 610.996L506.756 455.751C508.02 451.358 505.485 446.772 501.092 445.507C500.348 445.293 499.577 445.184 498.802 445.184C498.126 445.184 497.429 445.143 496.712 445.06C492.059 444.523 487.682 447.371 486.287 451.842L436.936 610.035C436.876 610.228 436.896 610.438 436.993 610.616L509.795 744.59L505.278 790.999ZM512.115 793.931C511.444 794.504 510.568 794.779 509.69 794.694C507.904 794.52 506.597 792.931 506.77 791.144L511.31 744.507C511.325 744.357 511.294 744.207 511.223 744.076L438.462 610.179L487.719 452.289C488.899 448.505 492.603 446.096 496.54 446.55C497.313 446.639 498.067 446.684 498.802 446.684C499.436 446.684 500.067 446.773 500.677 446.948C504.274 447.984 506.35 451.739 505.314 455.336L460.493 610.991C460.42 611.245 460.486 611.518 460.666 611.711L563.517 721.447L578.96 736.89L512.115 793.931Z" fill="#67577F"/>
<path fill-rule="evenodd" clip-rule="evenodd" d="M433.559 614.944C432.112 607.414 436.918 600.1 444.404 598.441L449.732 597.26C456.968 595.656 464.162 600.116 465.944 607.309C467.714 614.455 463.363 621.684 456.22 623.465L449.519 625.136C449.289 625.193 449.058 625.244 448.825 625.289C441.753 626.648 434.918 622.016 433.559 614.944ZM442.539 613.418C443.179 616.528 446.217 618.531 449.327 617.891C449.379 617.881 449.43 617.87 449.481 617.857L452.809 617.078C455.805 616.375 457.664 613.378 456.962 610.382C456.951 610.332 456.938 610.284 456.926 610.235C456.109 607.131 453.005 605.21 449.863 605.863L447.135 606.429C443.938 607.093 441.882 610.22 442.539 613.418Z" fill="#F6F0FF"/>
<path d="M432.925 615.396C431.401 607.468 436.462 599.767 444.344 598.019L449.673 596.838C457.305 595.147 464.895 599.851 466.774 607.439C468.644 614.987 464.048 622.622 456.504 624.503L449.803 626.174C449.56 626.235 449.315 626.289 449.069 626.336C441.59 627.773 434.362 622.875 432.925 615.396ZM434.398 615.113C435.679 621.779 442.121 626.144 448.786 624.863C449.005 624.821 449.223 624.773 449.44 624.718L456.141 623.048C462.882 621.367 466.989 614.544 465.318 607.8C463.634 601.002 456.835 596.787 449.997 598.303L444.669 599.484C437.58 601.055 433.028 607.982 434.398 615.113ZM441.907 613.88C441.167 610.276 443.483 606.754 447.085 606.006L449.813 605.439C453.346 604.705 456.835 606.865 457.754 610.355C457.768 610.41 457.782 610.465 457.795 610.521C458.592 613.92 456.482 617.322 453.083 618.119L449.755 618.898C449.697 618.912 449.639 618.925 449.581 618.937C446.065 619.659 442.63 617.395 441.907 613.88ZM443.377 613.578C443.932 616.282 446.575 618.023 449.279 617.467C449.324 617.458 449.368 617.448 449.413 617.438L452.74 616.658C455.333 616.05 456.942 613.456 456.335 610.863C456.325 610.821 456.314 610.778 456.303 610.736C455.588 608.018 452.87 606.336 450.118 606.908L447.39 607.474C444.598 608.054 442.803 610.785 443.377 613.578Z" fill="#67577F"/>
<path fill-rule="evenodd" clip-rule="evenodd" d="M336.278 517.153C337.674 512.435 342.021 509.207 346.941 509.236C351.485 509.262 355.162 512.938 355.188 517.481C355.197 518.963 355.203 519.831 355.205 520.087C355.205 520.093 355.205 520.099 355.206 520.106C355.246 525.294 351.072 529.533 345.884 529.573L344.061 529.587C343.68 529.59 343.298 529.568 342.92 529.52C338.241 528.926 334.93 524.652 335.523 519.973C335.563 519.66 335.815 518.72 336.278 517.153ZM291.278 408.153C292.674 403.435 297.021 400.207 301.941 400.236C306.485 400.262 310.162 403.938 310.188 408.481C310.197 409.963 310.203 410.831 310.205 411.087C310.205 411.093 310.206 411.099 310.206 411.106C310.246 416.294 306.072 420.533 300.884 420.573L299.061 420.587C298.68 420.59 298.298 420.568 297.92 420.52C293.241 419.926 289.93 415.652 290.523 410.973C290.563 410.66 290.815 409.72 291.278 408.153ZM755.278 386.153C756.674 381.435 761.021 378.207 765.941 378.236C770.485 378.262 774.162 381.938 774.188 386.481C774.197 387.963 774.203 388.831 774.205 389.087C774.205 389.093 774.206 389.099 774.206 389.106C774.246 394.294 770.072 398.533 764.884 398.573L763.061 398.587C762.68 398.59 762.298 398.568 761.92 398.52C757.241 397.926 753.93 393.652 754.523 388.973C754.563 388.66 754.815 387.72 755.278 386.153ZM657.278 551.153C658.674 546.435 663.021 543.207 667.941 543.236C672.485 543.262 676.162 546.938 676.188 551.481C676.197 552.963 676.203 553.831 676.205 554.087C676.205 554.093 676.206 554.099 676.206 554.106C676.246 559.294 672.072 563.533 666.884 563.573L665.061 563.587C664.68 563.59 664.298 563.568 663.92 563.52C659.241 562.926 655.93 558.652 656.523 553.973C656.563 553.66 656.815 552.72 657.278 551.153ZM786.278 611.153C787.674 606.435 792.021 603.207 796.941 603.236C801.485 603.262 805.162 606.938 805.188 611.481C805.197 612.963 805.203 613.831 805.205 614.087C805.205 614.093 805.206 614.099 805.206 614.106C805.246 619.294 801.072 623.533 795.884 623.573L794.061 623.587C793.68 623.59 793.298 623.568 792.92 623.52C788.241 622.926 784.93 618.652 785.523 613.973C785.563 613.66 785.815 612.72 786.278 611.153ZM678.278 223.153C679.674 218.435 684.021 215.207 688.941 215.236C693.485 215.262 697.162 218.938 697.188 223.481C697.197 224.963 697.203 225.831 697.205 226.087C697.205 226.093 697.206 226.099 697.206 226.106C697.246 231.294 693.072 235.533 687.884 235.573L686.061 235.587C685.68 235.59 685.298 235.568 684.92 235.52C680.241 234.926 676.93 230.652 677.523 225.973C677.563 225.66 677.815 224.72 678.278 223.153ZM87.2784 479.153C88.6741 474.435 93.0209 471.207 97.9414 471.236C102.485 471.262 106.162 474.938 106.188 479.481C106.197 480.963 106.203 481.831 106.205 482.087C106.205 482.093 106.206 482.099 106.206 482.106C106.246 487.294 102.072 491.533 96.884 491.573L95.0614 491.587C94.6797 491.59 94.2983 491.568 93.9197 491.52C89.241 490.926 85.9296 486.652 86.5235 481.973C86.5632 481.66 86.8148 480.72 87.2784 479.153ZM207.278 261.153C208.674 256.435 213.021 253.207 217.941 253.236C222.485 253.262 226.162 256.938 226.188 261.481C226.197 262.963 226.203 263.831 226.205 264.087C226.205 264.093 226.206 264.099 226.206 264.106C226.246 269.294 222.072 273.533 216.884 273.573L215.061 273.587C214.68 273.59 214.298 273.568 213.92 273.52C209.241 272.926 205.93 268.652 206.523 263.973C206.563 263.66 206.815 262.72 207.278 261.153Z" fill="#F6F0FF"/>
<path fill-rule="evenodd" clip-rule="evenodd" d="M153.996 606.286C145.457 600.725 139.603 591.298 139.029 580.343C138.075 562.143 152.056 546.615 170.257 545.662C188.457 544.708 203.985 558.689 204.938 576.889C205.523 588.048 200.494 598.201 192.321 604.608L179.995 588.855C183.215 586.332 185.196 582.332 184.966 577.936C184.59 570.766 178.473 565.258 171.303 565.634C164.133 566.01 158.626 572.127 159.001 579.297C159.228 583.612 161.534 587.326 164.898 589.516L153.996 606.286Z" fill="#F6F0FF"/>
<path d="M154.683 607.638L154.054 607.229C145.069 601.377 139.319 591.61 138.747 580.697C137.771 562.083 152.07 546.202 170.684 545.227C189.298 544.251 205.179 558.55 206.154 577.164C206.737 588.282 201.849 598.773 193.251 605.513L192.66 605.976L179.41 589.042L180 588.579C183.122 586.132 184.895 582.325 184.684 578.289C184.33 571.533 178.566 566.343 171.809 566.697C165.053 567.051 159.863 572.815 160.217 579.572C160.425 583.533 162.511 587.078 165.774 589.202L166.402 589.611L154.683 607.638ZM154.248 605.555L164.338 590.033C161.033 587.617 158.939 583.841 158.719 579.65C158.322 572.067 164.147 565.597 171.731 565.199C179.314 564.802 185.784 570.627 186.182 578.211C186.406 582.485 184.645 586.532 181.502 589.282L192.911 603.862C200.764 597.409 205.2 587.612 204.656 577.243C203.724 559.456 188.549 545.793 170.763 546.725C152.976 547.657 139.313 562.832 140.245 580.618C140.778 590.792 146.019 599.922 154.248 605.555Z" fill="#67577F"/>
<path fill-rule="evenodd" clip-rule="evenodd" d="M620.766 355.297L809.903 281.009C814.015 279.394 818.658 281.418 820.274 285.531C820.468 286.026 820.613 286.539 820.705 287.063L858.415 500.447C858.896 503.167 857.081 505.761 854.362 506.241C853.423 506.407 852.456 506.301 851.575 505.935L615.504 407.935V431.935L853.864 535.923C866.013 541.223 880.158 535.671 885.459 523.522C887.288 519.328 887.881 514.698 887.167 510.178L849.305 270.635C846.804 254.815 831.952 244.018 816.133 246.518C813.787 246.889 811.496 247.546 809.311 248.475L612.044 332.366C607.708 334.21 605.028 338.61 605.379 343.309C605.482 344.693 605.691 346.069 606.004 347.435C606.014 347.479 606.024 347.523 606.034 347.567C607.42 353.482 613.338 357.154 619.253 355.768C619.768 355.648 620.274 355.49 620.766 355.297Z" fill="white"/>
<path d="M621.338 355.994L810.475 281.706C814.202 280.243 818.41 282.077 819.874 285.804C820.05 286.253 820.181 286.718 820.265 287.193L857.975 500.577C858.384 502.888 856.841 505.093 854.53 505.502C853.731 505.643 852.909 505.553 852.161 505.242L615.052 406.81V432.425L853.863 536.61C866.391 542.075 880.979 536.35 886.444 523.821C888.331 519.496 888.943 514.721 888.206 510.06L850.344 270.517C847.779 254.288 832.543 243.211 816.314 245.776C813.908 246.157 811.558 246.831 809.316 247.784L612.048 331.675C607.417 333.644 604.554 338.345 604.929 343.364C605.036 344.786 605.25 346.199 605.571 347.601C605.587 347.669 605.587 347.669 605.602 347.737C607.082 354.055 613.404 357.977 619.722 356.498C620.272 356.369 620.813 356.2 621.338 355.994ZM616.552 409.057L851.585 506.627C852.599 507.048 853.711 507.17 854.791 506.979C857.918 506.426 860.005 503.443 859.452 500.316L821.742 286.932C821.641 286.359 821.483 285.797 821.27 285.256C819.503 280.758 814.425 278.543 809.927 280.31L620.79 354.598C620.331 354.778 619.86 354.925 619.38 355.037C613.869 356.328 608.354 352.906 607.063 347.395C607.048 347.33 607.048 347.33 607.033 347.266C606.728 345.937 606.526 344.599 606.425 343.252C606.098 338.874 608.595 334.773 612.635 333.055L809.903 249.165C812.032 248.259 814.263 247.619 816.548 247.258C831.959 244.822 846.426 255.34 848.862 270.751L886.724 510.295C887.416 514.673 886.842 519.158 885.07 523.221C879.935 534.991 866.232 540.369 854.462 535.235L616.552 431.443V409.057Z" fill="#67577F"/>
<path fill-rule="evenodd" clip-rule="evenodd" d="M622.817 499.758C613.246 496.261 605.422 488.393 602.398 477.848C597.374 460.328 607.504 442.054 625.023 437.03C642.543 432.006 660.817 442.136 665.841 459.656C668.921 470.396 666.305 481.421 659.783 489.502L644.229 476.926C646.799 473.743 647.829 469.4 646.616 465.168C644.637 458.267 637.438 454.276 630.536 456.255C623.635 458.234 619.644 465.433 621.623 472.335C622.814 476.489 625.897 479.588 629.667 480.966L622.817 499.758Z" fill="#F6F0FF"/>
<path d="M623.231 500.793L622.525 500.535C612.455 496.855 604.655 488.632 601.643 478.127C596.505 460.21 606.865 441.52 624.782 436.382C642.7 431.244 661.39 441.604 666.528 459.522C669.596 470.223 667.194 481.545 660.332 490.046L659.861 490.63L643.141 477.111L643.611 476.528C646.103 473.441 646.975 469.333 645.861 465.448C643.996 458.944 637.212 455.184 630.709 457.049C624.205 458.914 620.445 465.698 622.31 472.201C623.403 476.014 626.233 478.998 629.89 480.335L630.594 480.592L623.231 500.793ZM628.678 481.467C624.915 479.857 622.024 476.648 620.868 472.614C618.775 465.315 622.995 457.7 630.295 455.607C637.595 453.514 645.209 457.735 647.303 465.034C648.482 469.148 647.677 473.488 645.233 476.874L659.63 488.514C665.83 480.46 667.948 469.917 665.086 459.935C660.176 442.814 642.317 432.914 625.196 437.824C608.075 442.733 598.175 460.592 603.085 477.714C605.893 487.507 613.053 495.224 622.338 498.861L628.678 481.467Z" fill="#67577F"/>
<path fill-rule="evenodd" clip-rule="evenodd" d="M628.14 442.333C636.764 441.116 642.768 433.139 641.551 424.516C641.516 424.262 641.473 424.008 641.425 423.756L639.816 415.341C638.16 406.687 629.803 401.013 621.149 402.668C621.126 402.673 621.102 402.677 621.079 402.682C612.317 404.399 606.504 412.766 607.952 421.577L609.058 428.307C610.552 437.391 619.025 443.619 628.14 442.333Z" fill="white"/>
<path d="M628.068 442.849C637.101 441.574 643.391 433.218 642.117 424.184C642.079 423.918 642.035 423.652 641.985 423.388L640.375 414.973C638.642 405.912 629.892 399.972 620.831 401.705L620.757 401.719C611.598 403.514 605.521 412.261 607.035 421.471L608.141 428.202C609.7 437.687 618.549 444.192 628.068 442.849ZM627.858 441.363C619.147 442.592 611.048 436.64 609.621 427.959L608.515 421.228C607.132 412.817 612.682 404.83 621.046 403.191L621.113 403.178C629.36 401.601 637.325 407.007 638.902 415.254L640.512 423.67C640.557 423.91 640.597 424.151 640.632 424.393C641.79 432.607 636.072 440.204 627.858 441.363Z" fill="#67577F"/>
<path d="M452.701 302.953L577.223 311.949C581.079 312.227 583.979 315.579 583.7 319.435C583.69 319.58 583.675 319.725 583.655 319.869L571.657 408.548C571.153 412.271 567.799 414.933 564.059 414.578L437.641 402.587C433.793 402.222 430.968 398.806 431.334 394.958C431.348 394.804 431.368 394.651 431.393 394.498L445.287 308.814C445.868 305.235 449.085 302.692 452.701 302.953ZM438.314 395.545L564.755 407.713L576.855 318.941L452.197 309.935L438.314 395.545ZM486.362 358.935C481.392 358.935 477.362 354.905 477.362 349.935C477.362 344.964 481.392 340.935 486.362 340.935C491.333 340.935 495.362 344.964 495.362 349.935C495.362 354.905 491.333 358.935 486.362 358.935ZM472.581 369.672L537.422 374.207L537.143 378.197L472.302 373.663L472.581 369.672ZM527.578 361.9L519.396 352.15L529.146 343.969L537.328 353.719L527.578 361.9Z" fill="#F6F0FF"/>
<path fill-rule="evenodd" clip-rule="evenodd" d="M818.302 246.934C824.687 246.354 829.52 246.854 832.802 248.434C836.084 250.014 840.25 253.847 845.302 259.934L819.302 283.434C817.969 282.434 816.969 281.767 816.302 281.434C815.635 281.101 814.469 280.767 812.802 280.434L818.302 246.934ZM282.845 291.421C287.174 289.183 291.159 287.687 294.802 286.934C298.445 286.181 304.112 285.681 311.802 285.434L305.302 314.434L301.802 314.934L298.333 316.072L282.845 291.421ZM170.698 392.501C172.077 386.603 173.446 382.081 174.802 378.934C176.159 375.787 178.692 371.258 182.402 365.346L205.302 390.434L203.704 393.588L202.646 397.082L170.698 392.501ZM887.802 513.434C886.088 521.91 883.921 527.577 881.302 530.434C878.683 533.291 873.516 535.625 865.802 537.434L853.802 506.434C855.627 505.892 856.806 505.36 857.338 504.838C857.871 504.316 858.359 503.348 858.802 501.934L887.802 513.434Z" fill="#67577F"/>
<path d="M594.315 157.613L603.805 172.121L660.191 163.692L660.413 165.176L603.075 173.747L592.94 158.251L558.376 161.68C557.964 161.721 557.596 161.42 557.555 161.008C557.515 160.596 557.816 160.228 558.228 160.187L592.913 156.746L595.947 132.864L650.075 115.719C650.47 115.594 650.892 115.812 651.017 116.207C651.142 116.602 650.923 117.024 650.528 117.149L597.314 134.004L594.315 157.613Z" fill="#67577F"/>
<path d="M452.735 385.681C452.302 385.642 451.992 385.243 452.062 384.814L461.562 326.314C461.624 325.929 461.97 325.657 462.359 325.686L561.858 333.186C562.291 333.219 562.606 333.61 562.545 334.039L554.045 394.039C553.989 394.434 553.633 394.716 553.235 394.681L452.735 385.681ZM462.932 327.233L453.672 384.259L552.659 393.123L560.947 334.622L462.932 327.233ZM452.303 302.426L576.824 311.422C581.093 311.73 584.304 315.441 583.996 319.71C583.984 319.871 583.967 320.031 583.946 320.191L571.947 408.869C571.389 412.991 567.677 415.938 563.535 415.545L437.118 403.555C432.857 403.151 429.73 399.369 430.134 395.108C430.15 394.937 430.172 394.768 430.2 394.599L444.094 308.915C444.737 304.952 448.299 302.136 452.303 302.426ZM452.195 303.922C448.966 303.689 446.093 305.96 445.575 309.155L431.68 394.839C431.658 394.975 431.641 395.112 431.628 395.249C431.302 398.686 433.823 401.736 437.259 402.062L563.677 414.052C567.017 414.369 570.011 411.993 570.461 408.668L582.459 319.989C582.477 319.861 582.49 319.731 582.499 319.602C582.748 316.159 580.159 313.166 576.716 312.918L452.195 303.922ZM436.993 396.436L451.114 309.358L577.254 318.471L564.948 408.749L436.993 396.436ZM563.656 407.118L575.552 319.852L452.375 310.953L438.73 395.096L563.656 407.118ZM486.302 359.684C480.917 359.684 476.552 355.319 476.552 349.934C476.552 344.549 480.917 340.184 486.302 340.184C491.687 340.184 496.052 344.549 496.052 349.934C496.052 355.319 491.687 359.684 486.302 359.684ZM486.302 358.184C490.859 358.184 494.552 354.49 494.552 349.934C494.552 345.378 490.859 341.684 486.302 341.684C481.746 341.684 478.052 345.378 478.052 349.934C478.052 354.49 481.746 358.184 486.302 358.184ZM471.825 368.871L538.163 373.51L537.779 378.997L471.441 374.358L471.825 368.871ZM473.042 372.966L536.388 377.396L536.562 374.902L473.217 370.472L473.042 372.966ZM527.425 362.956L518.28 352.057L529.179 342.911L538.324 353.811L527.425 362.956ZM536.211 353.626L528.994 345.025L520.393 352.242L527.61 360.843L536.211 353.626Z" fill="#67577F"/>
<path d="M556.302 788.184V786.684V788.184ZM556.302 786.684C557.302 786.684 557.302 788.184 556.302 788.184H544.802C543.802 788.184 543.802 786.684 544.802 786.684H556.302H567.802C568.802 786.684 568.802 788.184 567.802 788.184H556.302C555.302 788.184 555.302 786.684 556.302 786.684ZM520.534 737.259L519.57 736.109L520.534 737.259ZM520.534 737.259L511.284 745.009C510.517 745.651 509.554 744.501 510.32 743.859L519.57 736.109L528.82 728.359C529.587 727.717 530.55 728.866 529.784 729.509L520.534 737.259Z" fill="#67577F"/>
</svg>
