<svg width="24" height="24" viewBox="0 0 24 24" fill="none" xmlns="http://www.w3.org/2000/svg">
<path fill-rule="evenodd" clip-rule="evenodd" d="M17.513 6.135C17.513 8.98496 15.1774 11.2962 12.2962 11.2962C9.41498 11.2962 7.07898 8.98496 7.07898 6.135C7.07898 3.28504 9.41498 0.97422 12.2962 0.97422C15.1774 0.97422 17.513 3.28504 17.513 6.135Z" stroke="white" stroke-linecap="round" stroke-linejoin="round"/>
<path d="M6.24029 20.5103L6.2506 19.1441C6.2506 19.0059 6.19815 18.8731 6.10399 18.7713L2.24622 14.6C2.13592 14.4816 2.08391 14.3219 2.10319 14.1622L3.0479 6.29459C3.08198 6.0165 3.32006 5.80703 3.60298 5.80703C3.91191 5.80703 4.16165 6.05462 4.16165 6.35962L4.31903 12.4462C4.31903 12.5583 4.35355 12.6686 4.41857 12.761L6.63844 15.3078L4.66965 11.4051C4.49793 11.0656 4.61137 10.6534 4.9315 10.4466C5.25253 10.2394 5.67849 10.3017 5.92419 10.5924L9.97745 15.3854C10.2424 15.746 10.385 16.1793 10.385 16.6238L10.372 20.5103" stroke="white" stroke-linecap="round" stroke-linejoin="round"/>
<path d="M4.3689 7.60321H4.76481C5.16699 7.60321 5.49341 7.9266 5.49341 8.32445V10.3083" stroke="white" stroke-linecap="round" stroke-linejoin="round"/>
<path d="M18.1157 20.5252L18.1143 19.1441C18.1143 19.006 18.1668 18.8728 18.2609 18.7714L22.1192 14.6001C22.229 14.4812 22.2815 14.322 22.2617 14.1619L21.317 6.29423C21.2834 6.01614 21.0449 5.80713 20.7619 5.80713C20.4535 5.80713 20.2033 6.05427 20.2033 6.35972L20.0459 12.4458C20.0459 12.5584 20.0114 12.6683 19.9464 12.7607L17.7265 15.3079L19.6957 11.4052C19.867 11.0657 19.754 10.6535 19.433 10.4463C19.1128 10.239 18.6864 10.3018 18.4416 10.592L14.3875 15.3855C14.1225 15.7461 13.9804 16.1794 13.9804 16.6239L13.9763 20.5027" stroke="white" stroke-linecap="round" stroke-linejoin="round"/>
<path d="M19.9964 7.60321H19.6005C19.1979 7.60321 18.8715 7.9266 18.8715 8.32445V10.3083" stroke="white" stroke-linecap="round" stroke-linejoin="round"/>
<path d="M5.33044 23.3096V20.5633H11.2592V23.3096" stroke="white" stroke-linecap="round" stroke-linejoin="round"/>
<path d="M10.2667 22.3035V21.5993" stroke="white" stroke-linecap="round" stroke-linejoin="round"/>
<path d="M19.0094 23.3096V20.5633H13.0811V23.3096" stroke="white" stroke-linecap="round" stroke-linejoin="round"/>
<path d="M14.0734 22.3035V21.5993" stroke="white" stroke-linecap="round" stroke-linejoin="round"/>
<path d="M13.6376 4.69654C13.6668 4.69721 13.695 4.68629 13.7161 4.66618C13.7371 4.64608 13.7494 4.61842 13.7501 4.58929V4.23229C13.7494 4.20315 13.7371 4.1755 13.7161 4.15539C13.695 4.13528 13.6668 4.12437 13.6376 4.12504H10.8626C10.8335 4.12437 10.8053 4.13528 10.7842 4.15539C10.7631 4.1755 10.7508 4.20315 10.7501 4.23229V4.63229C10.7508 4.66142 10.7631 4.68908 10.7842 4.70918C10.8053 4.72929 10.8335 4.74021 10.8626 4.73954H11.6626C11.7703 4.73263 11.878 4.75103 11.9773 4.79328C12.0765 4.83552 12.1645 4.90042 12.2341 4.98279H10.8626C10.8336 4.98211 10.8055 4.99293 10.7844 5.01288C10.7634 5.03282 10.751 5.06029 10.7501 5.08929V5.44654C10.7508 5.47567 10.7631 5.50333 10.7842 5.52343C10.8053 5.54354 10.8335 5.55446 10.8626 5.55379H12.3501C12.3212 5.71337 12.233 5.85608 12.1031 5.95321C11.9732 6.05034 11.8114 6.09467 11.6501 6.07729H10.8626C10.8335 6.07662 10.8053 6.08753 10.7842 6.10764C10.7631 6.12775 10.7508 6.15541 10.7501 6.18454V6.65754C10.7502 6.67249 10.7535 6.68725 10.7597 6.70083C10.766 6.71441 10.7751 6.7265 10.7864 6.73629L12.3336 8.09654C12.3547 8.11496 12.3818 8.12509 12.4099 8.12504H13.1849C13.2069 8.12613 13.2286 8.12037 13.2472 8.10856C13.2658 8.09676 13.2803 8.07948 13.2886 8.05911C13.297 8.03875 13.2988 8.01629 13.2939 7.99483C13.289 7.97337 13.2775 7.95397 13.2611 7.93929L11.8459 6.69554C12.1668 6.70618 12.4797 6.59393 12.7207 6.38169C12.9617 6.16946 13.1126 5.87325 13.1426 5.55354H13.6376C13.6667 5.55421 13.6949 5.54333 13.716 5.52327C13.7371 5.50322 13.7493 5.47563 13.7501 5.44654V5.08929C13.7494 5.06016 13.7371 5.0325 13.7161 5.01239C13.695 4.99228 13.6668 4.98137 13.6376 4.98204H13.0876C13.0559 4.88131 13.0111 4.78522 12.9541 4.69629L13.6376 4.69654Z" fill="white"/>
</svg>
